<svg width="86" height="100" viewBox="0 0 86 100" fill="none" xmlns="http://www.w3.org/2000/svg">
<path fill-rule="evenodd" clip-rule="evenodd" d="M52.1608 6.19429H9.50726C7.79687 6.19429 6.41011 7.58093 6.41011 9.29144V83.623C6.41011 85.3335 7.79687 86.7201 9.50726 86.7201H44.5812C45.0954 88.9218 45.9226 91.003 47.0136 92.9144H9.50726C4.3758 92.9144 0.21582 88.7545 0.21582 83.623V9.29144C0.21582 4.15992 4.3758 0 9.50726 0H52.8673C66.5513 0 77.6445 11.0931 77.6445 24.7772V60.6625C75.7181 59.6913 73.6379 58.9804 71.4502 58.5761V26.9976H55.2579C53.5475 26.9976 52.1608 25.6109 52.1608 23.9004V6.19429ZM58.3551 7.0179V20.8033H71.0243C69.5952 14.2429 64.7009 8.97655 58.3551 7.0179Z" fill="#877EFF"/>
<path fill-rule="evenodd" clip-rule="evenodd" d="M85.7848 81.4171C85.7848 91.6802 77.4648 100 67.2019 100C56.939 100 48.619 91.6802 48.619 81.4171C48.619 71.1541 56.939 62.8342 67.2019 62.8342C77.4648 62.8342 85.7848 71.1541 85.7848 81.4171ZM64.1045 91.311C64.1045 93.0215 65.4912 94.4082 67.2016 94.4082C68.9123 94.4082 70.2987 93.0215 70.2987 91.311V84.5143H77.0958C78.8062 84.5143 80.193 83.1276 80.193 81.4171C80.193 79.7066 78.8062 78.32 77.0958 78.32H70.2987V71.5232C70.2987 69.8127 68.9123 68.4261 67.2016 68.4261C65.4912 68.4261 64.1045 69.8127 64.1045 71.5232V78.32H57.308C55.5976 78.32 54.2108 79.7066 54.2108 81.4171C54.2108 83.1276 55.5976 84.5143 57.308 84.5143H64.1045V91.311Z" fill="#877EFF"/>
<path d="M16.2372 48.5639C16.2372 46.8534 17.6238 45.4668 19.3343 45.4668H59.5973C61.3078 45.4668 62.6944 46.8534 62.6944 48.5639C62.6944 50.2744 61.3078 51.6611 59.5973 51.6611H19.3343C17.6238 51.6611 16.2372 50.2744 16.2372 48.5639Z" fill="#877EFF"/>
<path d="M19.3343 64.2921C17.6238 64.2921 16.2372 65.6787 16.2372 67.3892C16.2372 69.0997 17.6238 70.4863 19.3343 70.4863H45.6601C47.3706 70.4863 48.7572 69.0997 48.7572 67.3892C48.7572 65.6787 47.3706 64.2921 45.6601 64.2921H19.3343Z" fill="#877EFF"/>
</svg>
