<svg width="101" height="101" viewBox="0 0 101 101" fill="none" xmlns="http://www.w3.org/2000/svg">
<path fill-rule="evenodd" clip-rule="evenodd" d="M50.8203 100.611C78.4345 100.611 100.82 78.2254 100.82 50.6112C100.82 22.997 78.4345 0.611206 50.8203 0.611206C23.2061 0.611206 0.820312 22.997 0.820312 50.6112C0.820312 78.2254 23.2061 100.611 50.8203 100.611ZM50.8203 90.6112C78.4345 90.6112 100.82 72.7026 100.82 50.6112C100.82 28.5198 78.4345 10.6112 50.8203 10.6112C23.2061 10.6112 0.820312 28.5198 0.820312 50.6112C0.820312 72.7026 23.2061 90.6112 50.8203 90.6112Z" fill="red"/>
<path d="M57.8867 30.5161C57.7617 30.0786 57.6367 29.7036 57.5117 29.3911C57.3867 29.0629 57.2539 28.7739 57.1133 28.5239C56.9883 28.2582 56.8398 28.0239 56.668 27.8207C56.5117 27.6176 56.3242 27.4067 56.1055 27.1879C55.5742 26.6411 54.9648 26.2348 54.2773 25.9692C53.6055 25.6879 52.8867 25.5473 52.1211 25.5473C51.1523 25.5473 50.2695 25.7348 49.4727 26.1098C48.6914 26.4848 48.0195 27.0239 47.457 27.727C46.9102 28.4145 46.4883 29.2504 46.1914 30.2348C45.8945 31.2192 45.7461 32.3129 45.7461 33.5161C45.7461 35.0786 45.957 36.4457 46.3789 37.6176C46.8008 38.7895 47.4023 39.7036 48.1836 40.3598C49.3555 41.2973 50.7539 41.7661 52.3789 41.7661C53.4883 41.7661 54.5117 41.5551 55.4492 41.1332C56.3867 40.7114 57.3555 40.0239 58.3555 39.0707L58.8242 39.5395C58.0117 40.6176 56.9727 41.4536 55.707 42.0473C54.457 42.6411 53.0664 42.9379 51.5352 42.9379C50.207 42.9379 48.9961 42.7192 47.9023 42.2817C46.8086 41.8442 45.8711 41.2348 45.0898 40.4536C44.3086 39.6567 43.6992 38.7036 43.2617 37.5942C42.8398 36.4848 42.6289 35.2504 42.6289 33.8911C42.6289 32.3442 42.8945 30.9536 43.4258 29.7192C43.957 28.4692 44.7383 27.4223 45.7695 26.5786C46.582 25.9223 47.4961 25.4145 48.5117 25.0551C49.5273 24.6801 50.5508 24.4926 51.582 24.4926C52.9102 24.4926 54.2227 24.7114 55.5195 25.1489C55.957 25.3051 56.3086 25.3832 56.5742 25.3832C56.8398 25.3832 57.0664 25.3051 57.2539 25.1489C57.457 24.9926 57.5977 24.7739 57.6758 24.4926H58.2383L58.4961 30.5161H57.8867Z" fill="red"/>
<path d="M9.82031 50.6112C9.82031 50.0589 10.268 49.6112 10.8203 49.6112H90.8203C91.3726 49.6112 91.8203 50.0589 91.8203 50.6112C91.8203 51.1635 91.3726 51.6112 90.8203 51.6112H10.8203C10.268 51.6112 9.82031 51.1635 9.82031 50.6112Z" fill="red"/>
<path d="M46.1445 60.2057C46.6289 60.1276 47.2461 60.0886 47.9961 60.0886H49.4492V73.4714C49.4492 74.0339 49.418 74.487 49.3555 74.8307C49.3086 75.1745 49.1914 75.4479 49.0039 75.6511C48.832 75.8386 48.582 75.9714 48.2539 76.0495C47.9258 76.112 47.4883 76.1589 46.9414 76.1901V76.6823H54.7227V76.1901C54.1758 76.1589 53.7305 76.112 53.3867 76.0495C53.0586 75.9714 52.8008 75.8464 52.6133 75.6745C52.4414 75.5026 52.3242 75.2682 52.2617 74.9714C52.1992 74.6745 52.168 74.2839 52.168 73.7995V60.0886H53.5977C54.3633 60.0886 54.9883 60.1276 55.4727 60.2057C55.957 60.2839 56.3477 60.4479 56.6445 60.6979C56.9414 60.9479 57.1758 61.2995 57.3477 61.7526C57.5352 62.1901 57.707 62.7761 57.8633 63.5104H58.5195L58.3555 58.9636H43.2617L43.0977 63.5104H43.7539C43.9102 62.7761 44.0742 62.1901 44.2461 61.7526C44.4336 61.2995 44.6758 60.9479 44.9727 60.6979C45.2852 60.4479 45.6758 60.2839 46.1445 60.2057Z" fill="red"/>
</svg>
