<svg width="88" height="100" viewBox="0 0 88 100" fill="none" xmlns="http://www.w3.org/2000/svg">
<path d="M30.2057 63.8073C30.2057 62.2732 31.4493 61.0295 32.9835 61.0295H71.8723C73.4065 61.0295 74.6501 62.2732 74.6501 63.8073C74.6501 65.3414 73.4065 66.5851 71.8723 66.5851H32.9835C31.4493 66.5851 30.2057 65.3414 30.2057 63.8073Z" fill="#877EFF"/>
<path d="M32.9835 45.5577C31.4493 45.5577 30.2057 46.8013 30.2057 48.3354C30.2057 49.8696 31.4493 51.1132 32.9835 51.1132H71.8723C73.4065 51.1132 74.6501 49.8696 74.6501 48.3354C74.6501 46.8013 73.4065 45.5577 71.8723 45.5577H32.9835Z" fill="#877EFF"/>
<path fill-rule="evenodd" clip-rule="evenodd" d="M64.8332 0C66.0392 0 67.2226 0.0960572 68.3765 0.280938H68.6627V0.328728C79.1108 2.14353 87.0555 11.2551 87.0555 22.2222V75C87.0555 79.6024 83.3245 83.3333 78.7221 83.3333H70.3888V91.6667C70.3888 96.269 66.6578 100 62.0554 100H9.27767C4.6753 100 0.944336 96.269 0.944336 91.6667V25C0.944336 20.3976 4.6753 16.6667 9.27767 16.6667H17.611V8.33334C17.611 3.73096 21.342 0 25.9443 0H64.8332ZM23.1666 22.2222H23.201V16.6667H23.1666V8.33334C23.1666 6.79921 24.4102 5.55556 25.9443 5.55556H63.1072V20.6438C63.1072 22.1779 64.3508 23.4216 65.8849 23.4216H81.4999V75C81.4999 76.5341 80.2562 77.7778 78.7221 77.7778H25.9443C24.4102 77.7778 23.1666 76.5341 23.1666 75V22.2222ZM17.611 22.2222H9.27767C7.74355 22.2222 6.49989 23.4659 6.49989 25V91.6667C6.49989 93.2008 7.74355 94.4444 9.27767 94.4444H62.0554C63.5896 94.4444 64.8332 93.2008 64.8332 91.6667V83.3333H25.9443C21.342 83.3333 17.611 79.6024 17.611 75V22.2222ZM68.6627 17.866V5.99761C74.6154 7.39722 79.3375 11.9881 80.9248 17.866H68.6627Z" fill="#877EFF"/>
</svg>
